<svg width="759" height="758" xmlns="http://www.w3.org/2000/svg" xmlns:xlink="http://www.w3.org/1999/xlink" xml:space="preserve" overflow="hidden"><g transform="translate(-292 58)"><path d="M303.01 707.783C276.48 702.477 253.172 690.159 232.896 670.641 184.573 623.645 175.667 552.013 210.535 493.269 218.683 479.625 242.75 455.747 256.393 447.41 309.643 415.763 375.968 420.501 422.964 459.538 453.284 484.741 471.097 520.367 473.182 560.162 475.456 602.799 461.053 640.51 430.923 670.072 397.382 702.856 349.438 717.068 303.01 707.783Z" fill="#FFFFFF" transform="matrix(1.00132 0 0 -1 292 700)"/><path d="M571.532 533.443C553.151 528.326 537.801 519.23 522.831 504.26 499.901 481.52 490.047 458.022 490.047 426.375 490.047 387.906 508.239 354.744 541.591 333.141L553.34 325.372 553.34 241.234 553.34 156.906 575.891 134.355C588.208 122.038 599.199 111.805 600.146 111.805 600.905 111.805 619.096 129.239 640.51 150.652L679.358 189.5 655.67 213.188 631.983 236.875 655.67 260.562 679.358 284.25 659.839 303.768 640.51 323.287 650.364 328.214C666.661 336.363 680.874 349.059 691.296 364.788 711.762 395.108 715.931 432.06 703.234 466.359 691.296 497.816 661.355 524.726 628.003 533.443 614.549 536.854 584.418 536.854 571.532 533.443ZM616.065 484.552C635.393 471.665 636.151 445.135 617.77 432.629 589.156 412.921 555.046 447.031 574.754 475.645 583.66 488.721 603.557 493.079 616.065 484.552Z" fill="#FFFFFF" transform="matrix(1.00132 0 0 -1 292 700)"/><path d="M249.572 375.968C212.43 369.336 179.077 351.523 150.652 323.098 129.239 301.495 116.922 282.734 106.878 256.014 97.2135 230.432 94.75 212.051 94.75 166.571L94.75 126.965 300.358 126.965 505.965 126.965 505.965 212.809 505.965 298.841 489.479 315.707C479.625 325.751 470.15 337.5 466.17 344.701 462.57 351.333 457.643 358.724 455.558 361.187 451.01 365.924 426.944 373.884 407.425 377.105 388.286 380.137 267.574 379.19 249.572 375.968Z" fill="#FFFFFF" transform="matrix(1.00132 0 0 -1 292 700)"/></g></svg>